<?xml version="1.0" encoding="UTF-8"?>
<svg width="59px" height="59px" viewBox="0 0 59 59" version="1.1" xmlns="http://www.w3.org/2000/svg" xmlns:xlink="http://www.w3.org/1999/xlink">
    <!-- Generator: Sketch 51.3 (57544) - http://www.bohemiancoding.com/sketch -->
    <title>create</title>
    <desc>Created with Sketch.</desc>
    <defs></defs>
    <g id="about-us" stroke="none" stroke-width="1" fill="none" fill-rule="evenodd">
        <g id="sewport-about-us" transform="translate(-220.000000, -741.000000)">
            <g id="create" transform="translate(220.000000, 741.000000)">
                <g id="Group-32" fill="#455DE1">
                    <path d="M29.5,0 C45.7924119,0 59,13.2075881 59,29.5 C59,45.7924119 45.7924119,59 29.5,59 C13.2075881,59 0,45.7924119 0,29.5 C0,13.2075881 13.2075881,0 29.5,0" id="Fill-1"></path>
                </g>
                <g id="tshirth-star-kid-summer" transform="translate(10.000000, 14.000000)" fill-rule="nonzero">
                    <path d="M38.6086828,2.06828679 L28.9925212,0.0150400325 C28.9452303,0.00501334416 28.8969263,0 28.8486394,0 L25.3237495,0 C25.1205051,0 24.9279929,0.0895557792 24.797196,0.24462724 C24.6667253,0.400023799 24.6120677,0.604886494 24.6476131,0.804051429 C24.7006051,1.10180643 24.7274273,1.4069189 24.7274273,1.71103896 C24.7274273,4.54161071 22.4166293,6.84415584 19.5759121,6.84415584 C16.7351949,6.84415584 14.424397,4.54161071 14.424397,1.71103896 C14.424397,1.40693601 14.4512192,1.10182354 14.5042111,0.804051429 C14.5397566,0.604869383 14.485099,0.400023799 14.3546283,0.24462724 C14.2238313,0.0895557792 14.0313192,0 13.8280747,0 L9.61631616,0 C9.56433737,0 9.51268485,0.00602285714 9.46170202,0.0173841558 L0.532409091,2.07063091 C0.178585859,2.15217903 -0.0504848485,2.49404461 0.00954747475,2.85095023 L1.50805455,11.7483528 C1.56372525,12.0778647 1.85013232,12.3194805 2.18551313,12.3194805 L7.96319495,12.3194805 L8.93044343,30.151381 C8.95024242,30.5143095 9.25141717,30.7987013 9.61631616,30.7987013 L29.5355081,30.7987013 C29.9004071,30.7987013 30.2015818,30.5143095 30.2213636,30.151381 L31.1886121,12.3194805 L36.9662939,12.3194805 C37.3016747,12.3194805 37.588099,12.0778647 37.6437697,11.7483528 L39.1422768,2.85095023 C39.2029788,2.49002367 38.9678808,2.14514666 38.6086828,2.06828679 Z" id="Shape" fill="#8B9DFF"></path>
                    <path d="M36.3850828,10.9506494 L30.5379758,10.9506494 C30.1730768,10.9506494 29.871902,11.2350411 29.8521202,11.5979696 L28.8848545,29.4298701 L10.2669525,29.4298701 L9.29970404,11.5979696 C9.27992222,11.2350411 8.97874747,10.9506494 8.61384848,10.9506494 L2.76674141,10.9506494 L1.47147879,3.2596661 L9.69446465,1.36883117 L13.0597263,1.36883117 C13.0536818,1.48278636 13.0506768,1.59708377 13.0506768,1.71103896 C13.0506768,5.29619601 15.9779222,8.21298701 19.5759293,8.21298701 C23.1739364,8.21298701 26.1011818,5.29619601 26.1011818,1.71103896 C26.1011818,1.59708377 26.0981596,1.48278636 26.0921323,1.36883117 L28.7758828,1.36883117 L37.6786798,3.26969279 L36.3850828,10.9506494 Z" id="Shape" fill="#FFFFFF"></path>
                    <path d="M23.9204939,14.7159446 L21.3440667,14.3429894 L20.1920162,12.0167122 C19.9605929,11.549513 19.1912313,11.549513 18.9598081,12.0167122 L17.8077576,14.3429894 L15.2313303,14.7159446 C14.9724152,14.7533821 14.7574253,14.9341705 14.676598,15.1818092 C14.5957707,15.4294478 14.6631869,15.7014688 14.8503242,15.8832667 L16.7147263,17.6945554 L16.2743576,20.2517545 C16.2304152,20.5084103 16.3360727,20.7680776 16.547697,20.92113 C16.7599909,21.0745247 17.0400444,21.0945781 17.2711242,20.9732654 L19.5758949,19.7658536 L21.8806657,20.9732654 C21.9812747,21.0257258 22.0909505,21.0518021 22.2002828,21.0518021 C22.3424818,21.0518021 22.4843545,21.0076915 22.6040929,20.92113 C22.8157172,20.7680776 22.9213747,20.5084103 22.8774323,20.2517545 L22.4370636,17.6945554 L24.3014657,15.8832667 C24.488603,15.7014688 24.5560192,15.4294478 24.4751919,15.1818092 C24.3943646,14.9341705 24.1794091,14.753365 23.9204939,14.7159446 Z" id="Shape" fill="#FF9F43"></path>
                    <path d="M21.219297,16.965687 C21.0576424,17.1227604 20.9835293,17.3493362 21.0217535,17.5712408 L21.2880525,19.1161893 L19.8955293,18.3866536 C19.7955899,18.3341931 19.6855707,18.3081169 19.5759121,18.3081169 C19.4662535,18.3081169 19.3562343,18.334176 19.2562949,18.3866536 L17.8637717,19.1161893 L18.1300707,17.5712408 C18.1683121,17.3493362 18.0941818,17.1227604 17.9325273,16.965687 L16.8059596,15.871221 L18.3624899,15.6459798 C18.5865293,15.6135556 18.7797111,15.4735413 18.8799939,15.2713478 L19.5759121,13.8660886 L20.2718303,15.2713478 C20.3721131,15.4735242 20.5652949,15.6135556 20.7893343,15.6459798 L22.3458646,15.871221 L21.219297,16.965687 Z" id="Shape" fill="#D6DBF5"></path>
                </g>
            </g>
        </g>
    </g>
</svg>