<?xml version="1.0" encoding="UTF-8"?>
<svg width="59px" height="59px" viewBox="0 0 59 59" version="1.1" xmlns="http://www.w3.org/2000/svg" xmlns:xlink="http://www.w3.org/1999/xlink">
    <!-- Generator: Sketch 51.3 (57544) - http://www.bohemiancoding.com/sketch -->
    <title>empower</title>
    <desc>Created with Sketch.</desc>
    <defs></defs>
    <g id="about-us" stroke="none" stroke-width="1" fill="none" fill-rule="evenodd">
        <g id="sewport-about-us" transform="translate(-780.000000, -741.000000)">
            <g id="empower" transform="translate(780.000000, 741.000000)">
                <g id="no-invoice" fill="#455DE1">
                    <g id="Group-32">
                        <path d="M29.5,0 C45.7924119,0 59,13.2075881 59,29.5 C59,45.7924119 45.7924119,59 29.5,59 C13.2075881,59 0,45.7924119 0,29.5 C0,13.2075881 13.2075881,0 29.5,0" id="Fill-1"></path>
                    </g>
                </g>
                <g id="diamond-valor-precious-luxury-gem" transform="translate(10.000000, 9.000000)" fill-rule="nonzero">
                    <polygon id="Shape" fill="#FFFFFF" points="13.0486922 16.7792208 19.3973753 39.9334416 25.7460805 16.7792208"></polygon>
                    <path d="M27.4497896,15.012987 L35.7406455,15.012987 C36.3339896,15.012987 36.783739,14.8461 36.9437156,14.5666818 C37.1036922,14.2876831 37.0196195,13.8159442 36.7190506,13.3053922 L30.5704377,2.85286494 C30.2358247,2.28411558 29.3285766,1.76623377 28.6671,1.76623377 L20.826413,1.76623377 L27.4497896,15.012987 Z" id="Shape" fill="#D6DBF5"></path>
                    <polygon id="Shape" fill="#D6DBF5" points="13.3199195 15.012987 25.4748532 15.012987 19.3973753 2.85763377"></polygon>
                    <path d="M35.7406455,16.7792208 L27.5774662,16.7792208 L21.5314935,38.8292143 L36.4827727,18.2298065 C36.8790494,17.6830247 36.9226091,17.2979636 36.8389558,17.1341013 C36.7557221,16.970239 36.4176429,16.7792208 35.7406455,16.7792208 Z" id="Shape" fill="#FFFFFF"></path>
                    <path d="M3.05410519,15.012987 L11.344961,15.012987 L17.9683377,1.76623377 L10.1276727,1.76623377 C9.46577662,1.76623377 8.55892597,2.28411558 8.22475455,2.85288701 L8.22431299,2.85288701 L2.07528052,13.3053922 C1.77473377,13.8172468 1.69021948,14.2889857 1.84933506,14.5675429 C2.00928961,14.8465416 2.45948052,15.012987 3.05410519,15.012987 Z" id="Shape" fill="#D6DBF5"></path>
                    <path d="M11.2172844,16.7792208 L3.05410519,16.7792208 C2.37538571,16.7792208 2.03730649,16.970239 1.95365325,17.1341013 C1.87086104,17.2975221 1.91442078,17.6821636 2.31197792,18.2298065 L17.2632571,38.8292143 L11.2172844,16.7792208 Z" id="Shape" fill="#FFFFFF"></path>
                    <path d="M38.1124104,15.8965896 C38.2482338,15.7569247 38.380039,15.6132857 38.4771156,15.4437714 C38.9622338,14.5955818 38.8764169,13.4899636 38.2416766,12.4102208 L32.0926221,1.95769351 C31.4367532,0.841720779 29.9637364,0 28.6671,0 L10.1276727,0 C8.83059481,0 7.35801948,0.841720779 6.70215065,1.95769351 L0.553096104,12.4101987 C-0.0915571429,13.5067649 -0.175651948,14.5843662 0.316354545,15.4446104 C0.414071429,15.6154273 0.544618182,15.7586909 0.678741558,15.8983558 C0.543183117,16.0519299 0.445841558,16.2033182 0.380181818,16.3320545 C0.129222078,16.824061 -0.139002597,17.8598247 0.882962338,19.2672922 L18.666839,43.7689948 C18.6672805,43.7695909 18.6677,43.7701208 18.6681416,43.7707831 L18.6828675,43.7910506 C18.7298714,43.8560039 18.786413,43.9110442 18.8474805,43.9599688 C18.8650545,43.9740325 18.8843506,43.984387 18.9029403,43.9970597 C18.9563468,44.0335545 19.0126234,44.0637792 19.0726312,44.0877117 C19.0958571,44.0970286 19.1181338,44.1061468 19.1422208,44.1134766 C19.224461,44.1384909 19.3093065,44.1558442 19.3973753,44.1558442 C19.4854442,44.1558442 19.5702896,44.1384909 19.6525519,44.1134766 C19.676639,44.1061468 19.6989156,44.0970286 19.7221416,44.0877117 C19.7821273,44.0637792 19.8384039,44.0335325 19.8918325,43.9970597 C19.9104221,43.984387 19.9297182,43.9740545 19.9472922,43.9599688 C20.0083597,43.9110221 20.0649013,43.8560039 20.1119052,43.7910506 L20.1266312,43.7707831 C20.1270727,43.7701429 20.1274922,43.7695909 20.1279338,43.7689948 L37.9122519,19.2672922 C38.9324948,17.8606857 38.6638506,16.8244805 38.4124494,16.3320545 C38.346613,16.2028545 38.2486753,16.0507377 38.1124104,15.8965896 Z M30.5704597,2.85288701 L36.7190727,13.3054143 C37.0196195,13.8159662 37.1037143,14.2877052 36.9437377,14.5667039 C36.783739,14.8461 36.3339896,15.012987 35.7406455,15.012987 L27.4497896,15.012987 L20.826413,1.76623377 L28.6671,1.76623377 C29.3285766,1.76623377 30.2358247,2.28411558 30.5704597,2.85288701 Z M13.0486922,16.7792208 L25.7460805,16.7792208 L19.3973753,39.9334416 L13.0486922,16.7792208 Z M13.3199195,15.012987 L19.3973753,2.85763377 L25.4748532,15.012987 L13.3199195,15.012987 Z M2.07528052,13.3053922 L8.22433506,2.85286494 L8.22477662,2.85286494 C8.55892597,2.28411558 9.46577662,1.76623377 10.1276727,1.76623377 L17.9683597,1.76623377 L11.3449831,15.012987 L3.05410519,15.012987 C2.45945844,15.012987 2.00928961,14.8465416 1.84931299,14.5675429 C1.6901974,14.2889857 1.77471169,13.8172468 2.07528052,13.3053922 Z M1.95367532,17.1341013 C2.03732857,16.970239 2.37538571,16.7792208 3.05410519,16.7792208 L11.2172844,16.7792208 L17.2632792,38.8292143 L2.312,18.2298065 C1.91442078,17.6821636 1.87088312,17.2975442 1.95367532,17.1341013 Z M36.4827727,18.2298065 L21.5314935,38.8292143 L27.5774883,16.7792208 L35.7406675,16.7792208 C36.4176649,16.7792208 36.7557442,16.970239 36.8389558,17.1341013 C36.922587,17.2979636 36.8790494,17.6830468 36.4827727,18.2298065 Z" id="Shape" fill="#8B9DFF"></path>
                </g>
            </g>
        </g>
    </g>
</svg>