<?xml version="1.0" encoding="UTF-8"?>
<svg width="59px" height="59px" viewBox="0 0 59 59" version="1.1" xmlns="http://www.w3.org/2000/svg" xmlns:xlink="http://www.w3.org/1999/xlink">
    <!-- Generator: Sketch 51.3 (57544) - http://www.bohemiancoding.com/sketch -->
    <title>make</title>
    <desc>Created with Sketch.</desc>
    <defs></defs>
    <g id="about-us" stroke="none" stroke-width="1" fill="none" fill-rule="evenodd">
        <g id="sewport-about-us" transform="translate(-220.000000, -981.000000)">
            <g id="make" transform="translate(220.000000, 981.000000)">
                <g id="no-invoice" fill="#455DE1">
                    <g id="Group-32">
                        <path d="M29.5,0 C45.7924119,0 59,13.2075881 59,29.5 C59,45.7924119 45.7924119,59 29.5,59 C13.2075881,59 0,45.7924119 0,29.5 C0,13.2075881 13.2075881,0 29.5,0" id="Fill-1"></path>
                    </g>
                </g>
                <g id="game-controller-friends-hobby" transform="translate(10.000000, 15.000000)" fill-rule="nonzero">
                    <path d="M31.2236925,10.6108613 C31.1788478,10.6018888 31.1333143,10.5974026 31.0857143,10.5974026 L24.0207792,10.5974026 L24.0207792,8.47792208 C24.0207792,8.08776104 23.7047823,7.77142857 23.3142857,7.77142857 L21.9012987,7.77142857 L21.9012987,5.53742545 C21.9012987,5.43083325 21.9012987,5.05206442 21.9012987,4.94545455 C21.9012987,4.16617455 22.5353413,3.53246753 23.3142857,3.53246753 C23.4458878,3.53246753 23.8891771,3.53246753 24.0207792,3.53246753 L31.7922078,3.53246753 C31.8166171,3.53246753 31.9053174,3.53246753 31.9297268,3.53246753 C33.4882868,3.53246753 34.7557008,2.26471792 34.7557008,0.706493506 C34.7557008,0.316332468 34.4397039,0 34.0492073,0 C33.6587106,0 33.3427138,0.316332468 33.3427138,0.706493506 C33.3427138,1.48577351 32.7086712,2.11948052 31.9297268,2.11948052 C31.9053174,2.11948052 31.8166171,2.11948052 31.7922078,2.11948052 L24.0207792,2.11948052 C23.8891771,2.11948052 23.4458878,2.11948052 23.3142857,2.11948052 C21.7557257,2.11948052 20.4883117,3.38723013 20.4883117,4.94545455 C20.4883117,5.05204675 20.4883117,5.43081558 20.4883117,5.53742545 L20.4883117,7.77142857 L17.6623377,7.77142857 C17.271841,7.77142857 16.9558442,8.08776104 16.9558442,8.47792208 L16.9558442,10.5974026 L8.47792208,10.5974026 C8.43169974,10.5974026 8.38616623,10.6018888 8.34201039,10.6108613 C3.65527377,10.8661351 0,14.7190681 0,19.4285714 C0,24.2981309 3.96160935,28.2597403 8.83116883,28.2597403 C11.2949236,28.2597403 13.636561,27.2338057 15.3062171,25.4337662 L24.2574369,25.4337662 C25.9270753,27.2338057 28.2687127,28.2597403 30.7324852,28.2597403 C35.6020447,28.2597403 39.563654,24.2981309 39.563654,19.4285714 C39.5636364,14.7201101 35.9090514,10.8675127 31.2236925,10.6108613 Z" id="Shape" fill="#8B9DFF"></path>
                    <rect id="Rectangle-path" fill="#D6DBF5" x="18.3688312" y="9.18441558" width="4.23896104" height="1.41298701"></rect>
                    <path d="M30.7324675,26.8467532 C28.5702088,26.8467532 26.5204062,25.9063751 25.1088145,24.2663917 C24.9749694,24.1104686 24.7790234,24.0207792 24.5734338,24.0207792 L14.9902203,24.0207792 C14.784613,24.0207792 14.5886847,24.1104686 14.4548395,24.2663917 C13.0432301,25.9063751 10.9934275,26.8467532 8.83116883,26.8467532 C4.7405361,26.8467532 1.41298701,23.5188509 1.41298701,19.4285714 C1.41298701,15.4428177 4.52941818,12.1873662 8.50828364,12.0172956 C8.53242805,12.0162535 8.5572613,12.0138514 8.58073455,12.0103896 L17.6623377,12.0103896 L23.3142857,12.0103896 L30.9822306,12.0103896 C31.0063751,12.0138338 31.0305195,12.0162535 31.0553704,12.0172956 C35.0342182,12.1873662 38.1506494,15.4428177 38.1506494,19.4285714 C38.1506494,23.5188509 34.8231003,26.8467532 30.7324675,26.8467532 Z" id="Shape" fill="#FFFFFF"></path>
                    <path d="M12.0103896,18.3688312 L9.18441558,18.3688312 L9.18441558,15.5428571 C9.18441558,15.1526961 8.8684187,14.8363636 8.47792208,14.8363636 C8.08742545,14.8363636 7.77142857,15.1526961 7.77142857,15.5428571 L7.77142857,18.3688312 L4.94545455,18.3688312 C4.55495792,18.3688312 4.23896104,18.6851636 4.23896104,19.0753247 C4.23896104,19.4654857 4.55495792,19.7818182 4.94545455,19.7818182 L7.77142857,19.7818182 L7.77142857,22.6077922 C7.77142857,22.9979532 8.08742545,23.3142857 8.47792208,23.3142857 C8.8684187,23.3142857 9.18441558,22.9979532 9.18441558,22.6077922 L9.18441558,19.7818182 L12.0103896,19.7818182 C12.4008862,19.7818182 12.7168831,19.4654857 12.7168831,19.0753247 C12.7168831,18.6851636 12.4008862,18.3688312 12.0103896,18.3688312 Z" id="Shape" fill="#FF9F43"></path>
                    <path d="M30.3792208,17.6623377 C31.547973,17.6623377 32.4987013,16.7116094 32.4987013,15.5428571 C32.4987013,14.3741049 31.547973,13.4233766 30.3792208,13.4233766 C29.2104686,13.4233766 28.2597403,14.3741049 28.2597403,15.5428571 C28.2597403,16.7116094 29.2104686,17.6623377 30.3792208,17.6623377 Z" id="Shape" fill="#FF9F43"></path>
                    <circle id="Oval" fill="#D6DBF5" cx="30.3792208" cy="15.5428571" r="1"></circle>
                    <path d="M34.6181818,16.9558442 C33.4494296,16.9558442 32.4987013,17.9065725 32.4987013,19.0753247 C32.4987013,20.2440769 33.4494296,21.1948052 34.6181818,21.1948052 C35.786934,21.1948052 36.7376623,20.2440769 36.7376623,19.0753247 C36.7376623,17.9065725 35.786934,16.9558442 34.6181818,16.9558442 Z" id="Shape" fill="#FF9F43"></path>
                    <circle id="Oval" fill="#D6DBF5" cx="34.6181818" cy="19.0753247" r="1"></circle>
                    <path d="M26.1402597,16.9558442 C24.9715075,16.9558442 24.0207792,17.9065725 24.0207792,19.0753247 C24.0207792,20.2440769 24.9715075,21.1948052 26.1402597,21.1948052 C27.3090119,21.1948052 28.2597403,20.2440769 28.2597403,19.0753247 C28.2597403,17.9065725 27.3090119,16.9558442 26.1402597,16.9558442 Z" id="Shape" fill="#FF9F43"></path>
                    <circle id="Oval" fill="#D6DBF5" cx="26.1402597" cy="19.0753247" r="1"></circle>
                    <path d="M30.3792208,20.4883117 C29.2104686,20.4883117 28.2597403,21.43904 28.2597403,22.6077922 C28.2597403,23.7765444 29.2104686,24.7272727 30.3792208,24.7272727 C31.547973,24.7272727 32.4987013,23.7765444 32.4987013,22.6077922 C32.4987013,21.43904 31.547973,20.4883117 30.3792208,20.4883117 Z" id="Shape" fill="#FF9F43"></path>
                    <circle id="Oval" fill="#D6DBF5" cx="30.3792208" cy="22.6077922" r="1"></circle>
                </g>
            </g>
        </g>
    </g>
</svg>