<?xml version="1.0" encoding="UTF-8"?>
<svg width="59px" height="59px" viewBox="0 0 59 59" version="1.1" xmlns="http://www.w3.org/2000/svg" xmlns:xlink="http://www.w3.org/1999/xlink">
    <!-- Generator: Sketch 51.3 (57544) - http://www.bohemiancoding.com/sketch -->
    <title>provide</title>
    <desc>Created with Sketch.</desc>
    <defs></defs>
    <g id="about-us" stroke="none" stroke-width="1" fill="none" fill-rule="evenodd">
        <g id="sewport-about-us" transform="translate(-780.000000, -981.000000)">
            <g id="provide" transform="translate(780.000000, 981.000000)">
                <g id="no-invoice" fill="#455DE1">
                    <g id="Group-32">
                        <path d="M29.5,0 C45.7924119,0 59,13.2075881 59,29.5 C59,45.7924119 45.7924119,59 29.5,59 C13.2075881,59 0,45.7924119 0,29.5 C0,13.2075881 13.2075881,0 29.5,0" id="Fill-1"></path>
                    </g>
                </g>
                <g id="hexagonal-structure-system-graphic" transform="translate(10.000000, 8.000000)" fill-rule="nonzero">
                    <path d="M7.17888563,13.1612903 C7.17888563,11.6220575 5.92632962,10.3695015 4.38709677,10.3695015 C2.84786393,10.3695015 1.59530792,11.6220575 1.59530792,13.1612903 C1.59530792,14.7005232 2.84786393,15.9530792 4.38709677,15.9530792 C5.92632962,15.9530792 7.17888563,14.7005232 7.17888563,13.1612903 Z" id="Shape" fill="#FFFFFF"></path>
                    <path d="M19.542522,7.17888563 C21.0817548,7.17888563 22.3343109,5.92632962 22.3343109,4.38709677 C22.3343109,2.84786393 21.0817548,1.59530792 19.542522,1.59530792 C18.0032891,1.59530792 16.7507331,2.84786393 16.7507331,4.38709677 C16.7507331,5.92632962 18.0032891,7.17888563 19.542522,7.17888563 Z" id="Shape" fill="#FFFFFF"></path>
                    <path d="M34.6979472,15.9530792 C36.2371801,15.9530792 37.4897361,14.7005232 37.4897361,13.1612903 C37.4897361,11.6220575 36.2371801,10.3695015 34.6979472,10.3695015 C33.1587144,10.3695015 31.9061584,11.6220575 31.9061584,13.1612903 C31.9061584,14.7005232 33.1587144,15.9530792 34.6979472,15.9530792 Z" id="Shape" fill="#FFFFFF"></path>
                    <path d="M19.542522,36.6920821 C18.0032891,36.6920821 16.7507331,37.9446381 16.7507331,39.483871 C16.7507331,41.0231038 18.0032891,42.2756598 19.542522,42.2756598 C21.0817548,42.2756598 22.3343109,41.0231038 22.3343109,39.483871 C22.3343109,37.9446381 21.0817548,36.6920821 19.542522,36.6920821 Z" id="Shape" fill="#FFFFFF"></path>
                    <path d="M4.38709677,27.9178886 C2.84786393,27.9178886 1.59530792,29.1704446 1.59530792,30.7096774 C1.59530792,32.2489103 2.84786393,33.5014663 4.38709677,33.5014663 C5.92632962,33.5014663 7.17888563,32.2489103 7.17888563,30.7096774 C7.17888563,29.1704446 5.92632962,27.9178886 4.38709677,27.9178886 Z" id="Shape" fill="#FFFFFF"></path>
                    <path d="M34.6979472,27.9178886 C33.1587144,27.9178886 31.9061584,29.1704446 31.9061584,30.7096774 C31.9061584,32.2489103 33.1587144,33.5014663 34.6979472,33.5014663 C36.2371801,33.5014663 37.4897361,32.2489103 37.4897361,30.7096774 C37.4897361,29.1704446 36.2371801,27.9178886 34.6979472,27.9178886 Z" id="Shape" fill="#FFFFFF"></path>
                    <path d="M19.542522,17.5483871 C17.1234569,17.5483871 15.1554252,19.5164188 15.1554252,21.9354839 C15.1554252,24.354549 17.1234569,26.3225806 19.542522,26.3225806 C21.9615871,26.3225806 23.9296188,24.354549 23.9296188,21.9354839 C23.9296188,19.5164188 21.9615871,17.5483871 19.542522,17.5483871 Z" id="Shape" fill="#D6DBF5"></path>
                    <path d="M19.542522,15.9530792 C16.2436246,15.9530792 13.5601173,18.6365865 13.5601173,21.9354839 C13.5601173,25.2343812 16.2436246,27.9178886 19.542522,27.9178886 C22.8414194,27.9178886 25.5249267,25.2343812 25.5249267,21.9354839 C25.5249267,18.6365865 22.8414194,15.9530792 19.542522,15.9530792 Z M19.542522,26.3225806 C17.1234569,26.3225806 15.1554252,24.354549 15.1554252,21.9354839 C15.1554252,19.5164188 17.1234569,17.5483871 19.542522,17.5483871 C21.9615871,17.5483871 23.9296188,19.5164188 23.9296188,21.9354839 C23.9296188,24.354549 21.9615871,26.3225806 19.542522,26.3225806 Z" id="Shape" fill="#FF9F43"></path>
                    <path d="M35.870339,26.4864587 C35.872034,26.4651413 35.8827625,26.4468352 35.8827625,26.4250194 L35.8827625,17.3812985 C37.7272774,16.8626041 39.085044,15.1693443 39.085044,13.1612903 C39.085044,10.7422252 37.1170123,8.77419355 34.6979472,8.77419355 C33.4960622,8.77419355 32.4061478,9.26066276 31.6129806,10.0462323 C30.3349994,9.3044739 28.9622768,8.4943566 27.6183894,7.70039179 C26.2596856,6.89747331 24.9426194,6.12037889 23.7928809,5.45425806 C23.878888,5.11192493 23.9296188,4.75573255 23.9296188,4.38709677 C23.9296188,1.96803167 21.9615871,0 19.542522,0 C17.1234569,0 15.1554252,1.96803167 15.1554252,4.38709677 C15.1554252,4.78650205 15.2137537,5.1718088 15.3142381,5.53976657 L7.46632023,10.0410674 C6.67363167,9.2587085 5.58620997,8.77419355 4.38709677,8.77419355 C1.96803167,8.77419355 0,10.7422252 0,13.1612903 C0,15.1693443 1.35776657,16.8626041 3.20230147,17.3812985 L3.20230147,26.4109806 C3.20230147,26.4374628 3.21486452,26.4598569 3.21739707,26.4857607 C1.36522463,26.9994897 0,28.6961595 0,30.7096774 C0,33.1287425 1.96803167,35.0967742 4.38709677,35.0967742 C5.56989795,35.0967742 6.64292199,34.6241443 7.43271906,33.8603707 C8.75508974,34.6251214 10.1900891,35.4591883 11.596732,36.2772821 C12.9011953,37.0354921 14.1667531,37.7713279 15.2908469,38.4217548 C15.2056774,38.7625525 15.1554252,39.11699 15.1554252,39.483871 C15.1554252,41.9029361 17.1234569,43.8709677 19.542522,43.8709677 C21.9615871,43.8709677 23.9296188,41.9029361 23.9296188,39.483871 C23.9296188,39.0943965 23.8736235,38.7186416 23.7779648,38.3588598 C25.0728364,37.6127144 26.5072375,36.7904328 27.9104903,35.9867367 C29.2474182,35.2205302 30.5365067,34.4816833 31.6377079,33.8471296 C32.4288411,34.6188798 33.5080469,35.0967742 34.6979472,35.0967742 C37.1170123,35.0967742 39.085044,33.1287425 39.085044,30.7096774 C39.085044,28.6971367 37.7211355,27.0010452 35.870339,26.4864587 Z M34.6979472,10.3695015 C36.2371801,10.3695015 37.4897361,11.6220575 37.4897361,13.1612903 C37.4897361,14.7005232 36.2371801,15.9530792 34.6979472,15.9530792 C33.1587144,15.9530792 31.9061584,14.7005232 31.9061584,13.1612903 C31.9061584,11.6220575 33.1587144,10.3695015 34.6979472,10.3695015 Z M19.542522,1.59530792 C21.0817548,1.59530792 22.3343109,2.84786393 22.3343109,4.38709677 C22.3343109,5.92632962 21.0817548,7.17888563 19.542522,7.17888563 C18.0032891,7.17888563 16.7507331,5.92632962 16.7507331,4.38709677 C16.7507331,2.84786393 18.0032891,1.59530792 19.542522,1.59530792 Z M1.59530792,13.1612903 C1.59530792,11.6220575 2.84786393,10.3695015 4.38709677,10.3695015 C5.92632962,10.3695015 7.17888563,11.6220575 7.17888563,13.1612903 C7.17888563,14.7005232 5.92632962,15.9530792 4.38709677,15.9530792 C2.84786393,15.9530792 1.59530792,14.7005232 1.59530792,13.1612903 Z M4.38709677,33.5014663 C2.84786393,33.5014663 1.59530792,32.2489103 1.59530792,30.7096774 C1.59530792,29.1704446 2.84786393,27.9178886 4.38709677,27.9178886 C5.92632962,27.9178886 7.17888563,29.1704446 7.17888563,30.7096774 C7.17888563,32.2489103 5.92632962,33.5014663 4.38709677,33.5014663 Z M19.542522,42.2756598 C18.0032891,42.2756598 16.7507331,41.0231038 16.7507331,39.483871 C16.7507331,37.9446381 18.0032891,36.6920821 19.542522,36.6920821 C21.0817548,36.6920821 22.3343109,37.9446381 22.3343109,39.483871 C22.3343109,41.0231038 21.0817548,42.2756598 19.542522,42.2756598 Z M27.1171238,34.6025279 C25.7520985,35.3846076 24.3577994,36.183817 23.0903472,36.9136903 C22.2922944,35.8151613 21.0012117,35.0967742 19.542522,35.0967742 C18.0613783,35.0967742 16.7519097,35.8365982 15.9571273,36.9639425 C14.8671132,36.3331777 13.6507707,35.6260774 12.3986933,34.8981384 C11.0371777,34.1062276 9.64955894,33.2997196 8.36182639,32.5546311 C8.62371613,31.9928235 8.77419355,31.3692575 8.77419355,30.7096774 C8.77419355,28.4291848 7.02469912,26.5512082 4.79760938,26.3434194 L4.79760938,17.5275484 C7.02469912,17.3197595 8.77419355,15.441783 8.77419355,13.1612903 C8.77419355,12.5173842 8.63125396,11.9073584 8.38097009,11.3559601 L16.0113478,6.97947214 C16.8107167,8.06533842 18.0938029,8.77419355 19.542522,8.77419355 C21.0217713,8.77419355 22.3296446,8.03622405 23.1247062,6.91131261 C24.2402651,7.55842933 25.5031109,8.30389677 26.8066968,9.07371261 C28.1155871,9.84683871 29.4513584,10.6349408 30.7013021,11.3617032 C30.4527132,11.9116457 30.3108504,12.5196176 30.3108504,13.1612903 C30.3108504,15.441783 32.0603449,17.3197595 34.2874346,17.5275484 L34.2874346,26.3434194 C32.0603449,26.5512082 30.3108504,28.4291848 30.3108504,30.7096774 C30.3108504,31.3624375 30.4580774,31.9801607 30.7148821,32.5375015 C29.6421572,33.1554041 28.4021044,33.8660141 27.1171238,34.6025279 Z M34.6979472,33.5014663 C33.1587144,33.5014663 31.9061584,32.2489103 31.9061584,30.7096774 C31.9061584,29.1704446 33.1587144,27.9178886 34.6979472,27.9178886 C36.2371801,27.9178886 37.4897361,29.1704446 37.4897361,30.7096774 C37.4897361,32.2489103 36.2371801,33.5014663 34.6979472,33.5014663 Z" id="Shape" fill="#8B9DFF"></path>
                </g>
            </g>
        </g>
    </g>
</svg>